<svg width="96" height="30" viewBox="0 0 96 30" fill="none" xmlns="http://www.w3.org/2000/svg">
  <path d="M2.43333 2.43095H93.4667V27.5667H2.43333V2.43095ZM0 30H95.8976V0H0V30Z" fill="#64EBBC" />
  <path
    d="M52.2905 9.01428H55.0214V13.6357H59.7119V9.01428H62.4428V21.4071H59.7119V16.0524H55.0214V21.4071H52.2905V9.01428Z"
    fill="#64EBBC" />
  <path d="M68.0976 9.01428H65.3667V21.4071H68.0976V9.01428Z" fill="#64EBBC" />
  <path d="M71.1262 9.01428H78.9977V11.5357H73.8572V14.0571H78.5762V16.5762H73.8572V21.4071H71.1262V9.01428Z"
    fill="#64EBBC" />
  <path d="M83.7929 11.4309H80.2571V9.01428H90.0619V11.4309H86.5238V21.4071H83.7929V11.4309Z" fill="#64EBBC" />
  <path
    d="M47.9309 12.0428C47.7095 11.7619 47.0666 11.219 45.9524 11.219C45.0452 11.219 44.1143 11.6309 44.1143 12.4976C44.1143 13.3642 44.9476 13.6476 45.5952 13.8642C46.0214 14.0047 46.4809 14.1404 46.969 14.2833C48.1571 14.6333 49.8238 15.4119 49.8238 17.6428C49.8238 20.5642 47.4047 21.7214 45.0428 21.7214C42.6809 21.7214 41.4714 20.7119 40.8762 20.1642L42.819 18.0285C43.1 18.4023 43.8714 19.2023 45.2 19.2023C46.0309 19.2023 47.0905 18.8523 47.0905 17.9071C47.0905 16.9357 46.0166 16.6238 45.5833 16.4714C45.1524 16.319 44.6833 16.1738 44.1833 16.0166C42.9024 15.6142 41.2762 14.85 41.2762 12.7261C41.2762 9.96186 43.6476 8.69995 46.0024 8.69995C48.1714 8.69995 49.2762 9.52852 49.8024 9.99519L47.9309 12.0428Z"
    fill="#64EBBC" />
</svg>