<svg id="Layer_1" data-name="Layer 1" xmlns="http://www.w3.org/2000/svg" viewBox="0 0 241 238"><defs><style>.cls-1{fill:#ac1f24;}</style></defs><title>skope_marker_fullcolor</title><path d="M119.58,81.67a36.66,36.66,0,0,0-10.39,1.51A18.36,18.36,0,0,1,84,109.06a36.88,36.88,0,1,0,35.62-27.39Z"/><path d="M134,58.49a62,62,0,0,1,45.71,45.72H209A90.79,90.79,0,0,0,134,29.15Z"/><path d="M105.21,178.66a62,62,0,0,1-45.72-45.72H30.15A90.79,90.79,0,0,0,105.21,208Z"/><path class="cls-1" d="M179.66,132.94A62,62,0,0,1,134,178.66V208A90.79,90.79,0,0,0,209,132.94Z"/></svg>